<?xml version="1.0" standalone="no"?>
<!DOCTYPE svg PUBLIC "-//W3C//DTD SVG 20010904//EN"
 "http://www.w3.org/TR/2001/REC-SVG-20010904/DTD/svg10.dtd">
<svg version="1.0" xmlns="http://www.w3.org/2000/svg"
 width="256.000000pt" height="256.000000pt" viewBox="0 0 256.000000 256.000000"
 preserveAspectRatio="xMidYMid meet">
<metadata>
Created by potrace 1.11, written by Peter Selinger 2001-2013
</metadata>
<g transform="translate(0.000000,256.000000) scale(0.100000,-0.100000)"
fill="#000000" stroke="none">
<path d="M567 2533 c-1 -1 -20 -4 -42 -7 -22 -3 -49 -7 -60 -10 -32 -7 -147
-58 -185 -82 -61 -38 -165 -155 -198 -224 -62 -128 -62 -125 -62 -786 0 -595
0 -602 21 -628 l21 -26 161 2 c187 3 188 4 133 86 -77 115 -106 246 -105 470
1 87 4 181 7 211 l7 53 80 27 c190 64 337 175 398 301 l33 67 74 -44 c182
-109 417 -196 635 -234 176 -31 537 -34 688 -5 54 10 101 16 103 13 15 -15 27
-185 27 -377 0 -190 -2 -224 -21 -295 -27 -97 -52 -149 -95 -201 -59 -70 -51
-74 147 -74 l172 0 17 29 c16 27 17 80 17 628 0 658 0 655 -62 783 -33 69
-137 186 -198 224 -71 44 -171 83 -240 92 -32 4 -1469 11 -1473 7z"/>
<path d="M1621 1596 c-19 -22 -25 -84 -11 -101 14 -17 254 -95 292 -95 14 0
30 6 36 13 14 17 19 84 7 95 -6 5 -73 28 -150 52 -77 24 -145 45 -151 47 -6 2
-16 -3 -23 -11z"/>
<path d="M785 1556 c-190 -56 -175 -48 -175 -99 0 -70 14 -76 124 -48 128 33
196 57 213 74 18 18 10 102 -10 110 -7 2 -75 -15 -152 -37z"/>
<path d="M799 1311 c-35 -35 -37 -71 -6 -105 21 -24 39 -30 80 -27 57 4 79
102 31 140 -37 29 -70 26 -105 -8z"/>
<path d="M1665 1315 c-53 -52 -16 -139 57 -137 59 2 100 78 65 123 -33 43 -87
50 -122 14z"/>
<path d="M1248 1085 c-15 -8 -29 -24 -33 -35 -3 -11 -11 -20 -17 -20 -6 0 -8
-13 -6 -30 l5 -30 -149 0 c-180 0 -178 1 -202 -126 -52 -276 -36 -304 143
-261 93 22 105 23 168 11 83 -16 209 -16 283 0 49 10 66 9 150 -12 109 -27
143 -21 161 25 16 40 -26 304 -53 338 -19 25 -22 25 -169 25 l-149 0 0 33 c0
63 -78 111 -132 82z"/>
<path d="M581 947 c-9 -11 -8 -17 4 -27 12 -10 16 -9 21 5 9 23 -10 40 -25 22z"/>
<path d="M1923 944 c-6 -17 15 -37 29 -28 13 9 9 32 -7 38 -9 3 -18 -1 -22
-10z"/>
<path d="M52 424 c11 -187 121 -330 297 -384 61 -19 95 -20 931 -20 836 0 870
1 931 20 175 54 286 197 297 383 2 48 1 87 -4 87 -4 0 -110 -16 -234 -35 -731
-112 -1284 -112 -1985 1 -88 14 -178 28 -199 31 l-39 6 5 -89z m1289 -75 c8
-15 8 -19 0 -15 -6 4 -11 2 -11 -3 0 -6 5 -11 10 -11 6 0 10 -6 10 -14 0 -15
-45 -23 -92 -18 -26 3 -41 32 -17 32 5 0 7 5 4 10 -14 23 5 40 44 40 31 0 43
-5 52 -21z m-94 -91 c6 14 73 17 73 2 0 -5 4 -10 10 -10 5 0 7 7 4 15 -4 9 -1
15 7 15 14 0 49 -52 49 -72 0 -13 -42 -58 -55 -58 -6 0 -16 -9 -23 -20 -18
-29 -37 -25 -83 19 -22 22 -45 41 -51 43 -7 3 -2 20 13 46 22 38 25 40 38 24
9 -12 15 -13 18 -4z"/>
</g>
</svg>
