<?xml version="1.0" standalone="no"?>
<!DOCTYPE svg PUBLIC "-//W3C//DTD SVG 20010904//EN"
 "http://www.w3.org/TR/2001/REC-SVG-20010904/DTD/svg10.dtd">
<svg version="1.0" xmlns="http://www.w3.org/2000/svg"
 width="1024.000000pt" height="1024.000000pt" viewBox="0 0 1024.000000 1024.000000"
 preserveAspectRatio="xMidYMid meet">
<metadata>
Created by potrace 1.11, written by Peter Selinger 2001-2013
</metadata>
<g transform="translate(0.000000,1024.000000) scale(0.100000,-0.100000)"
fill="#000000" stroke="none">
<path d="M2219 10236 c-2 -2 -41 -7 -85 -10 -45 -4 -93 -9 -105 -11 -456 -76
-730 -174 -1029 -370 -566 -369 -921 -997 -987 -1745 -10 -112 -10 -5862 0
-5965 86 -891 550 -1574 1295 -1909 112 -50 313 -120 407 -141 398 -88 160
-83 3410 -83 1627 0 2909 4 2960 9 679 68 1207 322 1595 769 308 354 502 842
548 1378 10 116 9 5834 -1 5942 -7 75 -17 149 -33 242 -4 25 -28 139 -38 180
-99 403 -305 775 -583 1053 -215 213 -409 339 -748 485 -101 43 -355 114 -486
135 -13 2 -55 8 -94 14 -38 6 -88 14 -110 18 -40 7 -5908 16 -5916 9z"/>
</g>
</svg>
