<?xml version="1.0" encoding="UTF-8" standalone="no"?><!DOCTYPE svg PUBLIC "-//W3C//DTD SVG 1.1//EN" "http://www.w3.org/Graphics/SVG/1.1/DTD/svg11.dtd"><svg width="100%" height="100%" viewBox="0 0 622 622" version="1.1" xmlns="http://www.w3.org/2000/svg" xmlns:xlink="http://www.w3.org/1999/xlink" xml:space="preserve" xmlns:serif="http://www.serif.com/" style="fill-rule:evenodd;clip-rule:evenodd;"><g id="V2"><ellipse id="Oval" cx="310.791" cy="311.124" rx="304.655" ry="304.833" style="fill:none;stroke:#000;stroke-width:12px;"/><g id="Mama"><g id="Face"><ellipse id="Khal" cx="215.654" cy="457.795" rx="6.672" ry="6.691"/><ellipse id="Bini" cx="314.989" cy="387.633" rx="23.989" ry="24.303"/><path id="Shadow" d="M384.795,465.384c0,-2.242 -1.725,-4.077 -3.834,-4.077c-44.248,23.44 -88.327,23.751 -132.115,0c-2.109,0 -3.834,1.835 -3.834,4.077c0,1.121 33.599,35.622 68.544,35.622c34.946,0 71.239,-34.501 71.239,-35.622Z" style="fill:none;"/><path id="Lab" d="M390.133,461.37c0,-2.243 -1.841,-4.077 -4.09,-4.077c-47.205,23.44 -94.23,23.751 -140.945,0c-2.249,0 -4.089,1.834 -4.089,4.077c-0.001,1.121 35.843,35.621 73.125,35.621c37.281,0 75.999,-34.501 75.999,-35.621Z" style="fill-rule:nonzero;"/><g id="Glasses"><ellipse id="Shape_14_" cx="181.147" cy="309.331" rx="108.554" ry="108.99" style="fill:none;stroke:#000;stroke-width:9.64px;"/><path id="Shape_15_" d="M286.425,352.036c18,-3.582 36,-3.582 54,0c2.452,0 4.459,-2.014 4.459,-4.478c0,-2.462 -2.006,-4.477 -4.459,-4.477c-18,-4.178 -36,-4.178 -54,0c-2.452,0 -4.459,2.014 -4.459,4.477c0,2.464 2.006,4.478 4.459,4.478Z" style="fill-rule:nonzero;stroke:#000;stroke-width:1.86px;"/><ellipse id="Shape_17_" cx="446.014" cy="309.331" rx="108.554" ry="108.99" style="fill:none;stroke:#000;stroke-width:9.64px;"/></g><g id="Eye---Eyebrow" serif:id="Eye-&amp;-Eyebrow"><path d="M454.895,338.829c-2.618,16.679 -17.18,29.444 -34.751,29.444c-19.424,0 -35.17,-15.599 -35.17,-34.841c0,-19.243 15.746,-34.842 35.17,-34.842c10.102,0 19.208,4.219 25.623,10.975l7.226,-7.138c3.062,-3.028 8.03,-3.028 11.094,0c3.064,3.027 3.064,7.933 0,10.96l-10.064,9.941l14.008,0c4.334,0.001 7.845,3.471 7.845,7.75c0,4.28 -3.513,7.75 -7.845,7.751l-13.136,0Zm-271.852,-29.264c6.414,-6.756 15.521,-10.975 25.622,-10.975c19.425,0 35.171,15.599 35.171,34.842c0,19.242 -15.746,34.841 -35.171,34.841c-17.571,0 -32.132,-12.765 -34.751,-29.444l-13.135,0c-4.332,0 -7.845,-3.471 -7.845,-7.751c0,-4.279 3.511,-7.75 7.845,-7.75l14.007,0l-10.063,-9.941c-3.064,-3.027 -3.064,-7.933 0,-10.96c3.064,-3.028 8.032,-3.028 11.094,0l7.226,7.138Zm259.811,18.492c2.74,0 4.965,2.204 4.965,4.919c0,2.715 -2.225,4.919 -4.965,4.919c-2.741,0 -4.966,-2.204 -4.966,-4.919c0,-2.715 2.225,-4.919 4.966,-4.919Zm-213.463,0c2.74,0 4.965,2.204 4.965,4.919c0,2.715 -2.225,4.919 -4.965,4.919c-2.741,0 -4.965,-2.204 -4.965,-4.919c0,-2.715 2.224,-4.919 4.965,-4.919Zm-10.344,-21.314c6.622,0 11.999,5.326 11.999,11.887c0,6.56 -5.377,11.887 -11.999,11.887c-6.623,0 -12,-5.327 -12,-11.887c0,-6.561 5.377,-11.887 12,-11.887Zm213.462,0c6.623,0 12,5.326 12,11.887c0,6.56 -5.377,11.887 -12,11.887c-6.622,0 -11.999,-5.327 -11.999,-11.887c0,-6.561 5.377,-11.887 11.999,-11.887Z" style="fill-opacity:0.8;"/><path id="Body" d="M390.912,240.008l94.399,20.21c4.947,1.059 8.299,5.679 7.772,10.711l-0.612,5.871c-0.57,5.436 -5.44,9.381 -10.876,8.811c-0.001,0 -0.003,0 -0.004,0l-95.464,-10.056c-5.435,-0.572 -9.377,-5.44 -8.807,-10.875l1.677,-16.027c0.57,-5.436 5.439,-9.381 10.875,-8.811c0.35,0.037 0.697,0.092 1.04,0.166Z" style="fill-rule:nonzero;"/><path id="Body1" serif:id="Body" d="M237.898,240.008l-94.399,20.21c-4.947,1.059 -8.299,5.679 -7.772,10.711l0.612,5.871c0.57,5.436 5.44,9.381 10.876,8.811c0.001,0 0.002,0 0.004,0l95.464,-10.056c5.434,-0.572 9.377,-5.44 8.807,-10.875l-1.677,-16.027c-0.57,-5.436 -5.439,-9.381 -10.876,-8.811c-0.349,0.037 -0.696,0.092 -1.039,0.166Z" style="fill-rule:nonzero;"/></g></g><g id="Hair"><path id="Tel" d="M471.451,130.28c1.902,-4.502 -38.7,-79.433 -155.973,-79.584c-117.273,-0.15 -162.258,75.009 -159.928,79.584c2.33,4.574 51.575,-62.111 159.928,-63.036c108.354,-0.924 154.07,67.537 155.973,63.036Z" style="fill-rule:nonzero;"/><path id="Combined-Shape" d="M556.33,301.376c-4.857,56.195 -17.603,98.492 -38.238,126.889c-11.837,16.289 -24.886,30.298 -39.148,42.026c-5.63,4.631 -6.441,12.949 -1.811,18.58c2.508,3.049 6.248,4.815 10.196,4.815l71.653,0l12.085,-19.151l-63.263,0c21.382,-20.17 36.44,-44.82 45.174,-73.949c8.421,-28.089 9.864,-61.089 4.329,-99c-3.886,-85.049 -42.6,-116.897 -120.065,-132.085c-53.205,-10.432 -94.356,-28.631 -123.453,-54.598c3.17,22.02 21.473,40.932 54.908,56.735c49.033,23.176 167.34,14.664 187.633,129.738l0,0Zm-489.309,6.17c-0.331,-3.356 -0.633,-6.764 -0.905,-10.223c-6.278,39.695 -5.049,74.107 3.685,103.237c8.733,29.129 23.791,53.779 45.173,73.949l-63.263,0l12.085,19.151l71.654,0c3.947,0 7.688,-1.766 10.195,-4.815c4.631,-5.631 3.82,-13.949 -1.811,-18.58c-14.262,-11.728 -27.311,-25.737 -39.148,-42.026c-19.757,-27.19 -32.282,-67.121 -37.575,-119.794c16.624,-122.497 138.717,-113.166 188.734,-136.807c33.435,-15.803 51.737,-34.715 54.907,-56.735c-29.096,25.967 -70.247,44.166 -123.452,54.598c-79.249,15.538 -117.942,48.511 -120.279,138.045l0,0Z"/></g></g></g></svg>