<?xml version="1.0" standalone="no"?>
<!DOCTYPE svg PUBLIC "-//W3C//DTD SVG 20010904//EN"
 "http://www.w3.org/TR/2001/REC-SVG-20010904/DTD/svg10.dtd">
<svg version="1.0" xmlns="http://www.w3.org/2000/svg"
 width="1024.000000pt" height="1024.000000pt" viewBox="0 0 1024.000000 1024.000000"
 preserveAspectRatio="xMidYMid meet">
<metadata>
Created by potrace 1.11, written by Peter Selinger 2001-2013
</metadata>
<g transform="translate(0.000000,1024.000000) scale(0.100000,-0.100000)"
fill="#000000" stroke="none">
<path d="M2265 10229 c-932 -49 -1660 -501 -2014 -1251 -133 -281 -212 -590
-241 -943 -14 -169 -13 -5657 0 -5836 11 -137 43 -359 61 -415 5 -18 37 -57
69 -88 94 -90 218 -136 365 -136 45 0 69 -5 86 -18 50 -38 199 -123 268 -152
152 -65 288 -110 277 -91 -3 5 29 -3 71 -19 125 -44 171 -64 172 -74 0 -12
151 -77 171 -74 21 4 179 -63 177 -75 -3 -14 131 -68 179 -71 39 -3 88 -23
169 -68 53 -30 368 -129 375 -117 3 4 49 -3 103 -18 53 -14 94 -29 91 -34 -8
-14 187 -60 208 -48 19 11 204 -25 200 -39 -1 -7 4 -12 11 -12 7 0 64 -6 127
-14 190 -24 221 -26 215 -16 -4 6 42 10 119 10 72 0 127 -4 131 -10 14 -23
345 -2 395 26 14 7 77 25 140 40 63 15 139 35 168 45 29 10 50 14 47 9 -9 -14
3 -12 52 6 24 9 43 22 43 28 0 15 148 88 161 80 13 -8 149 82 149 99 0 15 112
107 131 107 17 0 120 110 113 122 -3 4 10 15 29 24 39 19 92 12 84 -10 -3 -8
6 -19 20 -27 13 -7 38 -30 55 -51 16 -21 37 -38 45 -38 20 0 135 -99 128 -111
-7 -11 124 -99 148 -99 27 0 157 -69 157 -83 0 -7 14 -18 30 -24 17 -6 28 -7
24 -2 -8 14 9 11 79 -16 36 -13 112 -36 169 -50 57 -15 112 -32 124 -40 52
-33 236 -44 527 -30 93 5 127 3 127 -5 0 -12 47 -10 230 11 109 13 132 18 126
28 -7 10 190 45 205 36 16 -10 188 25 205 42 7 8 45 23 84 34 79 21 94 23 85
9 -6 -10 31 0 230 62 72 22 143 49 158 60 39 28 177 80 194 74 19 -8 184 56
180 69 -5 13 138 75 172 75 33 0 172 60 165 72 -3 4 5 12 18 17 118 47 169 64
201 66 21 1 55 9 75 18 20 8 64 25 97 38 75 28 255 116 276 135 8 8 19 14 23
14 4 0 34 18 67 40 57 37 65 40 133 40 100 0 180 16 256 53 76 35 175 125 189
171 18 56 50 278 61 415 13 179 14 5667 0 5836 -35 432 -152 818 -341 1131
-318 526 -827 873 -1482 1009 -301 62 -98 58 -3182 60 -1545 1 -2877 -1 -2960
-6z m3354 -574 c723 -79 1325 -310 1810 -692 125 -99 350 -326 430 -433 74
-100 146 -218 138 -226 -3 -3 -27 22 -54 57 -199 260 -366 432 -563 581 -474
358 -1024 567 -1720 653 -173 22 -673 31 -870 16 -598 -46 -1124 -194 -1583
-446 -348 -191 -654 -446 -881 -732 -53 -68 -99 -123 -102 -123 -9 0 44 89 89
150 310 422 835 788 1428 995 300 105 647 177 979 205 69 6 145 12 170 14 102
9 594 -4 729 -19z m-448 -1142 c128 -172 338 -391 504 -525 257 -208 575 -386
958 -539 l158 -63 -90 -32 c-336 -120 -666 -362 -877 -644 -258 -346 -384
-720 -384 -1141 0 -175 11 -283 45 -431 12 -57 22 -104 20 -106 -2 -2 -54 4
-117 13 -146 22 -406 22 -547 1 -58 -9 -108 -16 -112 -16 -4 0 1 33 12 73 79
304 71 687 -21 996 -171 574 -603 1035 -1172 1251 l-96 36 101 39 c393 149
730 333 997 545 135 106 382 355 490 493 46 59 85 107 86 107 1 0 21 -26 45
-57z m2364 -1400 c456 -179 759 -362 1024 -618 175 -170 321 -363 424 -563 37
-71 48 -104 58 -177 17 -135 7 -415 -21 -544 -183 -856 -946 -1436 -1815
-1380 -768 49 -1419 622 -1575 1383 -110 540 50 1123 406 1480 227 226 507
392 754 444 149 32 480 65 535 54 11 -2 106 -38 210 -79z m-4325 62 c164 -17
269 -38 364 -72 277 -100 598 -339 761 -568 143 -201 244 -456 287 -720 19
-121 16 -418 -6 -540 -77 -427 -297 -802 -625 -1068 -586 -472 -1418 -508
-2042 -88 -482 324 -770 863 -769 1436 1 225 17 277 157 504 101 163 174 254
327 407 290 289 584 468 1091 665 140 54 156 58 235 58 47 1 146 -6 220 -14z
m6034 -1975 c108 -535 95 -1098 -39 -1656 -87 -364 -229 -687 -444 -1012 -196
-295 -379 -477 -648 -642 -65 -40 -137 -89 -161 -107 -78 -63 -91 -128 -31
-158 45 -24 164 -52 253 -60 l79 -8 -54 -34 c-30 -18 -55 -37 -57 -42 -1 -4
14 -11 35 -15 90 -15 465 -28 668 -23 l220 5 -90 -45 -90 -45 98 4 c53 2 97 2
97 0 0 -5 -307 -152 -430 -205 -1065 -460 -1990 -602 -2683 -411 -318 88 -601
273 -783 510 l-57 74 -30 -42 c-192 -267 -490 -460 -863 -558 -175 -45 -343
-63 -604 -64 -340 0 -589 34 -1000 135 -389 97 -959 310 -1322 496 l-113 58
65 3 65 4 -84 42 -85 43 215 -5 c291 -6 709 16 709 38 0 4 -24 22 -52 41 -48
30 -51 33 -28 36 227 26 312 48 349 87 21 22 22 28 11 60 -15 46 -52 77 -194
165 -152 95 -257 173 -352 263 -261 248 -542 702 -678 1097 -210 608 -260
1302 -140 1934 14 75 29 137 33 137 3 0 16 -51 28 -114 102 -523 439 -995 905
-1270 529 -311 1214 -335 1773 -62 380 186 670 477 866 869 28 56 52 103 54
105 8 9 192 34 315 43 102 7 188 7 292 -1 125 -9 306 -34 313 -42 2 -2 29 -55
62 -118 272 -530 735 -888 1299 -1005 251 -52 515 -54 768 -5 55 11 102 17
105 15 2 -3 -1 -5 -8 -5 -7 0 -37 -12 -67 -26 -36 -17 -54 -31 -54 -43 0 -16
8 -18 68 -14 37 2 81 9 97 15 112 40 269 148 214 148 -5 0 -7 -4 -4 -10 10
-16 -1 -11 -16 7 -8 9 -9 14 -2 10 6 -4 13 -4 15 0 1 5 39 25 83 47 458 220
819 629 979 1110 37 110 86 317 86 362 0 57 19 7 44 -116z"/>
<path d="M6305 6708 c-34 -18 -76 -62 -87 -88 -6 -14 -18 -96 -28 -183 -17
-150 -17 -161 -1 -228 32 -127 78 -151 331 -174 36 -3 79 -8 95 -10 17 -2 57
-7 90 -10 33 -3 78 -8 100 -10 39 -4 63 -7 190 -20 33 -4 74 -8 90 -10 17 -2
61 -7 99 -10 38 -4 79 -8 90 -10 12 -2 53 -6 93 -10 39 -3 82 -8 95 -10 13 -2
59 -7 103 -11 44 -4 82 -8 85 -9 23 -5 205 -17 240 -16 60 4 88 20 148 85 56
62 72 110 72 217 0 81 -29 132 -92 165 -35 18 -1607 354 -1656 354 -20 0 -46
-6 -57 -12z"/>
<path d="M6743 5720 c-259 -68 -433 -293 -433 -562 0 -46 7 -110 15 -142 53
-204 223 -369 435 -422 84 -21 229 -14 321 15 173 55 331 220 376 392 l17 69
124 0 c134 0 163 8 201 56 27 35 28 98 1 142 -31 50 -71 62 -212 62 l-123 0
87 88 c97 98 108 116 108 167 0 78 -51 125 -135 125 -43 0 -49 -4 -125 -76
l-79 -76 -48 42 c-137 120 -347 168 -530 120z m418 -249 c49 -50 37 -121 -27
-147 -29 -12 -39 -12 -68 0 -40 17 -56 42 -56 86 0 43 47 90 90 90 22 0 41 -9
61 -29z m139 -275 c19 -23 8 -61 -18 -64 -44 -7 -67 32 -36 62 19 20 38 20 54
2z"/>
<path d="M3060 6550 c-431 -93 -797 -174 -812 -181 -35 -14 -86 -71 -94 -105
-11 -41 4 -180 22 -216 20 -41 90 -115 125 -133 37 -20 207 -19 311 0 9 2 52
7 95 10 43 4 86 9 95 10 9 2 52 7 95 10 43 4 86 9 95 10 9 2 52 7 95 10 43 4
86 9 95 10 9 2 52 7 95 10 43 4 86 9 95 10 9 2 52 7 95 10 43 4 86 9 95 10 9
2 52 7 95 10 43 4 85 8 93 10 8 1 44 6 80 10 165 17 215 52 244 171 15 65 15
78 -3 232 -15 120 -25 171 -40 195 -28 45 -88 77 -142 76 -24 0 -397 -77 -829
-169z"/>
<path d="M3245 5729 c-73 -15 -203 -80 -258 -129 l-48 -43 -78 77 c-75 73 -81
76 -125 76 -85 0 -136 -47 -136 -125 0 -51 11 -69 108 -167 l87 -88 -123 0
c-141 0 -181 -12 -212 -62 -38 -62 -19 -141 43 -178 27 -17 51 -20 158 -20
l126 0 12 -52 c22 -97 70 -177 156 -263 119 -120 248 -175 412 -175 99 0 164
15 258 60 203 97 325 291 325 513 0 51 -7 119 -15 151 -20 75 -74 178 -125
238 -55 63 -176 143 -258 169 -78 24 -230 33 -307 18z m356 -258 c49 -50 37
-121 -27 -147 -29 -12 -39 -12 -68 0 -40 17 -56 42 -56 86 0 43 47 90 90 90
22 0 41 -9 61 -29z m139 -275 c19 -23 8 -61 -18 -64 -44 -7 -67 32 -36 62 19
20 38 20 54 2z"/>
<path d="M4730 4272 c0 -10 5 -44 11 -76 6 -32 11 -83 12 -114 5 -119 101
-258 220 -316 75 -37 162 -51 238 -37 185 32 314 164 343 351 l7 45 -36 -60
c-20 -33 -46 -71 -58 -84 -31 -32 -103 -81 -130 -87 -144 -30 -192 -31 -278
-4 -102 31 -181 90 -244 180 -29 42 -63 134 -67 180 -3 34 -18 53 -18 22z"/>
<path d="M2030 3830 c0 -5 4 -10 9 -10 5 0 22 -13 38 -28 61 -60 154 -107 235
-118 54 -8 50 18 -8 52 -46 27 -248 114 -265 114 -5 0 -9 -4 -9 -10z"/>
<path d="M3433 3184 c-31 -15 -63 -66 -63 -99 0 -25 27 -72 52 -89 34 -24 102
-21 133 7 96 84 -8 239 -122 181z"/>
<path d="M3925 3037 c-17 -13 -14 -18 41 -70 259 -245 654 -459 959 -518 100
-20 320 -18 425 4 196 42 416 133 633 264 120 72 323 221 372 272 27 29 28 32
12 48 -21 21 -50 14 -187 -47 -526 -234 -1065 -289 -1595 -163 -146 34 -341
102 -489 169 -129 58 -142 61 -171 41z"/>
</g>
</svg>
